<svg xmlns="http://www.w3.org/2000/svg" viewBox="0 0 100 100" preserveAspectRatio="xMidYMid" width="242" height="242" style="shape-rendering: auto; display: block;" xmlns:xlink="http://www.w3.org/1999/xlink"><g><g transform="translate(50 50)">
<g>
<animateTransform repeatCount="indefinite" dur="0.6535947712418301s" keyTimes="0;1" values="0;36" type="rotate" attributeName="transform"></animateTransform><path fill="#2458b2" d="M28.770644761631605 -8.5 L35.7706447616316 -8.5 L35.7706447616316 8.5 L28.770644761631605 8.5 A30 30 0 0 1 28.272115195770546 10.0343162376457 L28.272115195770546 10.0343162376457 L33.935234156395175 14.14881300369301 L23.94288486742314 27.902101908067117 L18.279765906798506 23.787605142019807 A30 30 0 0 1 16.97459855897753 24.73586472637571 L16.97459855897753 24.73586472637571 L19.137717519602162 31.393260340441785 L2.9697567425845532 36.64654924481589 L0.8066377819599212 29.98915363074981 A30 30 0 0 1 -0.8066377819599175 29.98915363074981 L-0.8066377819599175 29.98915363074981 L-2.9697567425845497 36.64654924481589 L-19.137717519602166 31.393260340441785 L-16.974598558977533 24.73586472637571 A30 30 0 0 1 -18.2797659067985 23.78760514201981 L-18.2797659067985 23.78760514201981 L-23.942884867423132 27.902101908067124 L-33.935234156395175 14.14881300369301 L-28.272115195770546 10.034316237645697 A30 30 0 0 1 -28.7706447616316 8.500000000000009 L-28.7706447616316 8.500000000000009 L-35.7706447616316 8.500000000000009 L-35.7706447616316 -8.500000000000002 L-28.770644761631605 -8.500000000000002 A30 30 0 0 1 -28.27211519577055 -10.03431623764569 L-28.27211519577055 -10.03431623764569 L-33.93523415639518 -14.148813003693 L-23.942884867423146 -27.90210190806711 L-18.279765906798513 -23.7876051420198 A30 30 0 0 1 -16.974598558977526 -24.735864726375713 L-16.974598558977526 -24.735864726375713 L-19.13771751960216 -31.39326034044179 L-2.969756742584565 -36.64654924481589 L-0.8066377819599315 -29.98915363074981 A30 30 0 0 1 0.8066377819599205 -29.98915363074981 L0.8066377819599205 -29.98915363074981 L2.9697567425845515 -36.64654924481589 L19.13771751960215 -31.393260340441792 L16.97459855897752 -24.735864726375716 A30 30 0 0 1 18.279765906798506 -23.787605142019807 L18.279765906798506 -23.787605142019807 L23.942884867423135 -27.90210190806712 L33.935234156395175 -14.148813003693025 L28.272115195770542 -10.034316237645712 A30 30 0 0 1 28.770644761631605 -8.5 M0 -17A17 17 0 1 0 0 17 A17 17 0 1 0 0 -17"></path></g></g><g></g></g><!-- [ldio] generated by https://loading.io --></svg>